<svg xmlns="http://www.w3.org/2000/svg" viewBox="0 0 50 50">
    <path d="M 12.5 2 C 6.7 2 2 6.7 2 12.5 L 2 37.59375 C 2 43.29375 6.7 48 12.5 48 L 37.59375 48 C 43.29375 48 48 43.3 48 37.5 L 48 12.5 C 48 6.7 43.3 2 37.5 2 L 12.5 2 z M 25 6 C 29.9 6 34.2875 7.90625 37.6875 10.90625 L 41.3125 7.3125 C 41.7125 6.9125 42.2875 6.9125 42.6875 7.3125 C 43.0875 7.7125 43.0875 8.2875 42.6875 8.6875 L 39.09375 12.3125 C 42.09375 15.7125 44 20.1 44 25 C 44 29.9 42.09375 34.2875 39.09375 37.6875 L 42.6875 41.3125 C 43.0875 41.7125 43.0875 42.2875 42.6875 42.6875 C 42.4875 42.8875 42.3 43 42 43 C 41.7 43 41.5125 42.8875 41.3125 42.6875 L 37.6875 39.09375 C 34.2875 42.09375 29.9 44 25 44 C 20.1 44 15.7125 42.09375 12.3125 39.09375 L 8.6875 42.6875 C 8.4875 42.8875 8.3 43 8 43 C 7.7 43 7.5125 42.8875 7.3125 42.6875 C 6.9125 42.2875 6.9125 41.7125 7.3125 41.3125 L 10.90625 37.6875 C 7.90625 34.2875 6 29.9 6 25 C 6 20.1 7.90625 15.7125 10.90625 12.3125 L 7.3125 8.6875 C 6.9125 8.2875 6.9125 7.7125 7.3125 7.3125 C 7.7125 6.9125 8.2875 6.9125 8.6875 7.3125 L 12.3125 10.90625 C 15.7125 7.90625 20.1 6 25 6 z M 25 8 C 20.7 8 16.6875 9.6125 13.6875 12.3125 L 18.6875 17.3125 C 20.3875 15.8125 22.6 15 25 15 C 27.4 15 29.6125 15.8125 31.3125 17.3125 L 36.3125 12.3125 C 33.3125 9.6125 29.3 8 25 8 z M 12.3125 13.6875 C 9.6125 16.6875 8 20.7 8 25 C 8 29.3 9.6125 33.3125 12.3125 36.3125 L 17.3125 31.3125 C 15.8125 29.6125 15 27.4 15 25 C 15 22.6 15.8125 20.3875 17.3125 18.6875 L 12.3125 13.6875 z M 37.6875 13.6875 L 32.6875 18.6875 C 34.0875 20.3875 35 22.6 35 25 C 35 27.4 34.1875 29.6125 32.6875 31.3125 L 37.6875 36.3125 C 40.3875 33.3125 42 29.4 42 25 C 42 20.6 40.3875 16.6875 37.6875 13.6875 z M 25 17 C 23.2 17 21.49375 17.5875 20.09375 18.6875 L 25 23.59375 L 29.90625 18.6875 C 28.50625 17.5875 26.8 17 25 17 z M 18.6875 20.09375 C 17.5875 21.49375 17 23.2 17 25 C 17 26.8 17.5875 28.50625 18.6875 29.90625 L 23.59375 25 L 18.6875 20.09375 z M 31.3125 20.09375 L 26.40625 25 L 31.3125 29.90625 C 32.4125 28.50625 33 26.8 33 25 C 33 23.2 32.4125 21.49375 31.3125 20.09375 z M 25 26.40625 L 20.09375 31.3125 C 21.49375 32.4125 23.2 33 25 33 C 26.8 33 28.50625 32.4125 29.90625 31.3125 L 25 26.40625 z M 18.6875 32.6875 L 13.6875 37.6875 C 16.6875 40.3875 20.6 42 25 42 C 29.4 42 33.3125 40.3875 36.3125 37.6875 L 31.3125 32.6875 C 29.6125 34.1875 27.4 35 25 35 C 22.6 35 20.3875 34.1875 18.6875 32.6875 z"></path>
</svg>